<mxfile host="app.diagrams.net" modified="2024-03-12T12:39:44.495Z" agent="Mozilla/5.0 (Windows NT 10.0; Win64; x64) AppleWebKit/537.36 (KHTML, like Gecko) Chrome/122.0.0.0 Safari/537.36" etag="rk5PpSpZxEMxd5GVcT5f" version="23.1.5" type="device">
  <diagram name="Page-1" id="aLXLC-gzcM06G5DPoIjw">
    <mxGraphModel dx="2501" dy="746" grid="1" gridSize="10" guides="1" tooltips="1" connect="1" arrows="1" fold="1" page="1" pageScale="1" pageWidth="827" pageHeight="1169" math="0" shadow="0">
      <root>
        <mxCell id="0" />
        <mxCell id="1" parent="0" />
        <mxCell id="Frr1hfQ2MMtZjARR2G04-27" value="Plante_id&lt;br&gt;Commande_id&lt;br&gt;quantite" style="ellipse;shape=doubleEllipse;whiteSpace=wrap;html=1;hachureGap=4;fontFamily=Architects Daughter;fontSource=https%3A%2F%2Ffonts.googleapis.com%2Fcss%3Ffamily%3DArchitects%2BDaughter;fontSize=20;" parent="1" vertex="1">
          <mxGeometry x="-390" y="95" width="400" height="210" as="geometry" />
        </mxCell>
        <mxCell id="Frr1hfQ2MMtZjARR2G04-2" value="Produits" style="swimlane;whiteSpace=wrap;html=1;hachureGap=4;fontFamily=Architects Daughter;fontSource=https%3A%2F%2Ffonts.googleapis.com%2Fcss%3Ffamily%3DArchitects%2BDaughter;fontSize=20;startSize=23;" parent="1" vertex="1">
          <mxGeometry x="-750" y="10" width="265" height="320" as="geometry" />
        </mxCell>
        <mxCell id="Frr1hfQ2MMtZjARR2G04-3" value="&lt;font style=&quot;font-size: 12px;&quot; face=&quot;Helvetica&quot;&gt;nom_produit&lt;/font&gt;" style="text;html=1;align=center;verticalAlign=middle;resizable=0;points=[];autosize=1;strokeColor=none;fillColor=none;fontSize=20;fontFamily=Architects Daughter;" parent="Frr1hfQ2MMtZjARR2G04-2" vertex="1">
          <mxGeometry x="85" y="30" width="90" height="40" as="geometry" />
        </mxCell>
        <mxCell id="Frr1hfQ2MMtZjARR2G04-4" value="&lt;font style=&quot;font-size: 12px;&quot; face=&quot;Helvetica&quot;&gt;description _produit&lt;/font&gt;" style="text;html=1;align=center;verticalAlign=middle;resizable=0;points=[];autosize=1;strokeColor=none;fillColor=none;fontSize=20;fontFamily=Architects Daughter;" parent="Frr1hfQ2MMtZjARR2G04-2" vertex="1">
          <mxGeometry x="65" y="60" width="130" height="40" as="geometry" />
        </mxCell>
        <mxCell id="Frr1hfQ2MMtZjARR2G04-5" value="&lt;font style=&quot;font-size: 12px;&quot; face=&quot;Helvetica&quot;&gt;Prix_produit&lt;/font&gt;" style="text;html=1;align=center;verticalAlign=middle;resizable=0;points=[];autosize=1;strokeColor=none;fillColor=none;fontSize=20;fontFamily=Architects Daughter;" parent="Frr1hfQ2MMtZjARR2G04-2" vertex="1">
          <mxGeometry x="85" y="90" width="90" height="40" as="geometry" />
        </mxCell>
        <mxCell id="Frr1hfQ2MMtZjARR2G04-6" value="&lt;font style=&quot;font-size: 12px;&quot; face=&quot;Helvetica&quot;&gt;Stock&amp;nbsp;&lt;/font&gt;" style="text;html=1;align=center;verticalAlign=middle;resizable=0;points=[];autosize=1;strokeColor=none;fillColor=none;fontSize=20;fontFamily=Architects Daughter;" parent="Frr1hfQ2MMtZjARR2G04-2" vertex="1">
          <mxGeometry x="100" y="120" width="60" height="40" as="geometry" />
        </mxCell>
        <mxCell id="v7OVMKoYqWH1p72j22wS-21" value="image" style="text;html=1;align=center;verticalAlign=middle;resizable=0;points=[];autosize=1;strokeColor=none;fillColor=none;" parent="Frr1hfQ2MMtZjARR2G04-2" vertex="1">
          <mxGeometry x="100" y="160" width="60" height="30" as="geometry" />
        </mxCell>
        <mxCell id="v7OVMKoYqWH1p72j22wS-26" value="caractÃ¨ristique" style="text;html=1;align=center;verticalAlign=middle;resizable=0;points=[];autosize=1;strokeColor=none;fillColor=none;" parent="Frr1hfQ2MMtZjARR2G04-2" vertex="1">
          <mxGeometry x="82.5" y="200" width="100" height="30" as="geometry" />
        </mxCell>
        <mxCell id="v7OVMKoYqWH1p72j22wS-38" value="entretien" style="text;html=1;align=center;verticalAlign=middle;resizable=0;points=[];autosize=1;strokeColor=none;fillColor=none;" parent="Frr1hfQ2MMtZjARR2G04-2" vertex="1">
          <mxGeometry x="95" y="230" width="70" height="30" as="geometry" />
        </mxCell>
        <mxCell id="v7OVMKoYqWH1p72j22wS-49" value="categorie" style="text;html=1;align=center;verticalAlign=middle;resizable=0;points=[];autosize=1;strokeColor=none;fillColor=none;" parent="Frr1hfQ2MMtZjARR2G04-2" vertex="1">
          <mxGeometry x="95" y="260" width="70" height="30" as="geometry" />
        </mxCell>
        <mxCell id="v7OVMKoYqWH1p72j22wS-6" value="lot" style="text;html=1;align=center;verticalAlign=middle;resizable=0;points=[];autosize=1;strokeColor=none;fillColor=none;" parent="Frr1hfQ2MMtZjARR2G04-2" vertex="1">
          <mxGeometry x="110" y="290" width="40" height="30" as="geometry" />
        </mxCell>
        <mxCell id="Frr1hfQ2MMtZjARR2G04-8" value="Client" style="swimlane;whiteSpace=wrap;html=1;hachureGap=4;fontFamily=Architects Daughter;fontSource=https%3A%2F%2Ffonts.googleapis.com%2Fcss%3Ffamily%3DArchitects%2BDaughter;fontSize=20;" parent="1" vertex="1">
          <mxGeometry x="500" y="80" width="290" height="240" as="geometry" />
        </mxCell>
        <mxCell id="Frr1hfQ2MMtZjARR2G04-9" value="&lt;font style=&quot;font-size: 12px;&quot; face=&quot;Helvetica&quot;&gt;nom&lt;/font&gt;" style="text;html=1;align=center;verticalAlign=middle;resizable=0;points=[];autosize=1;strokeColor=none;fillColor=none;fontSize=20;fontFamily=Architects Daughter;" parent="Frr1hfQ2MMtZjARR2G04-8" vertex="1">
          <mxGeometry x="115" y="50" width="50" height="40" as="geometry" />
        </mxCell>
        <mxCell id="Frr1hfQ2MMtZjARR2G04-10" value="&lt;font style=&quot;font-size: 12px;&quot; face=&quot;Helvetica&quot;&gt;prenom&lt;/font&gt;" style="text;html=1;align=center;verticalAlign=middle;resizable=0;points=[];autosize=1;strokeColor=none;fillColor=none;fontSize=20;fontFamily=Architects Daughter;" parent="Frr1hfQ2MMtZjARR2G04-8" vertex="1">
          <mxGeometry x="110" y="80" width="60" height="40" as="geometry" />
        </mxCell>
        <mxCell id="Frr1hfQ2MMtZjARR2G04-11" value="&lt;font style=&quot;font-size: 12px;&quot; face=&quot;Helvetica&quot;&gt;adresse-mail&lt;/font&gt;" style="text;html=1;align=center;verticalAlign=middle;resizable=0;points=[];autosize=1;strokeColor=none;fillColor=none;fontSize=20;fontFamily=Architects Daughter;" parent="Frr1hfQ2MMtZjARR2G04-8" vertex="1">
          <mxGeometry x="95" y="110" width="90" height="40" as="geometry" />
        </mxCell>
        <mxCell id="Frr1hfQ2MMtZjARR2G04-12" value="&lt;font style=&quot;font-size: 12px;&quot; face=&quot;Helvetica&quot;&gt;mot_de_passe&lt;/font&gt;" style="text;html=1;align=center;verticalAlign=middle;resizable=0;points=[];autosize=1;strokeColor=none;fillColor=none;fontSize=20;fontFamily=Architects Daughter;" parent="Frr1hfQ2MMtZjARR2G04-8" vertex="1">
          <mxGeometry x="95" y="170" width="100" height="40" as="geometry" />
        </mxCell>
        <mxCell id="Frr1hfQ2MMtZjARR2G04-13" value="&lt;font style=&quot;font-size: 12px;&quot; face=&quot;Helvetica&quot;&gt;telephone&lt;/font&gt;" style="text;html=1;align=center;verticalAlign=middle;resizable=0;points=[];autosize=1;strokeColor=none;fillColor=none;fontSize=20;fontFamily=Architects Daughter;" parent="Frr1hfQ2MMtZjARR2G04-8" vertex="1">
          <mxGeometry x="105" y="140" width="80" height="40" as="geometry" />
        </mxCell>
        <mxCell id="LkYBel29slSREBmKHJnN-1" value="id_client" style="text;html=1;align=center;verticalAlign=middle;resizable=0;points=[];autosize=1;strokeColor=none;fillColor=none;" parent="Frr1hfQ2MMtZjARR2G04-8" vertex="1">
          <mxGeometry x="105" y="30" width="70" height="30" as="geometry" />
        </mxCell>
        <mxCell id="Frr1hfQ2MMtZjARR2G04-28" value="&lt;b&gt;Details_Commande&lt;br&gt;&lt;/b&gt;" style="text;html=1;align=center;verticalAlign=middle;resizable=0;points=[];autosize=1;strokeColor=none;fillColor=none;fontSize=20;fontFamily=Architects Daughter;" parent="1" vertex="1">
          <mxGeometry x="-285" y="50" width="190" height="40" as="geometry" />
        </mxCell>
        <mxCell id="Frr1hfQ2MMtZjARR2G04-30" value="&lt;font style=&quot;font-size: 12px;&quot; face=&quot;Helvetica&quot;&gt;0,1&lt;/font&gt;" style="text;html=1;align=center;verticalAlign=middle;resizable=0;points=[];autosize=1;strokeColor=none;fillColor=none;fontSize=20;fontFamily=Architects Daughter;" parent="1" vertex="1">
          <mxGeometry x="100" y="365" width="40" height="40" as="geometry" />
        </mxCell>
        <mxCell id="Frr1hfQ2MMtZjARR2G04-34" value="0,n" style="text;html=1;align=center;verticalAlign=middle;resizable=0;points=[];autosize=1;strokeColor=none;fillColor=none;fontSize=20;fontFamily=Architects Daughter;" parent="1" vertex="1">
          <mxGeometry x="450" y="245" width="50" height="40" as="geometry" />
        </mxCell>
        <mxCell id="kiaXTEcKel--K1FoqDEo-6" value="0,n" style="text;html=1;align=center;verticalAlign=middle;resizable=0;points=[];autosize=1;strokeColor=none;fillColor=none;" parent="1" vertex="1">
          <mxGeometry x="19.999999999999996" y="210" width="40" height="30" as="geometry" />
        </mxCell>
        <mxCell id="kiaXTEcKel--K1FoqDEo-8" value="commande" style="swimlane;whiteSpace=wrap;html=1;" parent="1" vertex="1">
          <mxGeometry x="84.69" y="60" width="210.62" height="305" as="geometry" />
        </mxCell>
        <mxCell id="kiaXTEcKel--K1FoqDEo-12" value="Date_commande" style="text;html=1;align=center;verticalAlign=middle;resizable=0;points=[];autosize=1;strokeColor=none;fillColor=none;" parent="kiaXTEcKel--K1FoqDEo-8" vertex="1">
          <mxGeometry x="45" y="60" width="110" height="30" as="geometry" />
        </mxCell>
        <mxCell id="kiaXTEcKel--K1FoqDEo-13" value="Etat_Commande" style="text;html=1;align=center;verticalAlign=middle;resizable=0;points=[];autosize=1;strokeColor=none;fillColor=none;" parent="kiaXTEcKel--K1FoqDEo-8" vertex="1">
          <mxGeometry x="45" y="90" width="110" height="30" as="geometry" />
        </mxCell>
        <mxCell id="LkYBel29slSREBmKHJnN-2" value="total" style="text;html=1;align=center;verticalAlign=middle;resizable=0;points=[];autosize=1;strokeColor=none;fillColor=none;" parent="kiaXTEcKel--K1FoqDEo-8" vertex="1">
          <mxGeometry x="75" y="120" width="50" height="30" as="geometry" />
        </mxCell>
        <mxCell id="LkYBel29slSREBmKHJnN-5" value="id_commande" style="text;html=1;align=center;verticalAlign=middle;resizable=0;points=[];autosize=1;strokeColor=none;fillColor=none;" parent="kiaXTEcKel--K1FoqDEo-8" vertex="1">
          <mxGeometry x="50" y="30" width="100" height="30" as="geometry" />
        </mxCell>
        <mxCell id="kiaXTEcKel--K1FoqDEo-19" value="0,1" style="text;html=1;align=center;verticalAlign=middle;resizable=0;points=[];autosize=1;strokeColor=none;fillColor=none;" parent="1" vertex="1">
          <mxGeometry x="295.31" y="250" width="40" height="30" as="geometry" />
        </mxCell>
        <mxCell id="AJ8ExckoHPWglMIkNY3l-1" value="adresse livraison" style="swimlane;whiteSpace=wrap;html=1;" parent="1" vertex="1">
          <mxGeometry x="-20" y="520" width="200" height="280" as="geometry" />
        </mxCell>
        <mxCell id="4F924PSeMsaonOZ9PlPk-1" value="nom complet" style="text;html=1;align=center;verticalAlign=middle;resizable=0;points=[];autosize=1;strokeColor=none;fillColor=none;" parent="AJ8ExckoHPWglMIkNY3l-1" vertex="1">
          <mxGeometry x="55" y="30" width="90" height="30" as="geometry" />
        </mxCell>
        <mxCell id="LkYBel29slSREBmKHJnN-7" value="adresse" style="text;html=1;align=center;verticalAlign=middle;resizable=0;points=[];autosize=1;strokeColor=none;fillColor=none;" parent="AJ8ExckoHPWglMIkNY3l-1" vertex="1">
          <mxGeometry x="65" y="60" width="70" height="30" as="geometry" />
        </mxCell>
        <mxCell id="LkYBel29slSREBmKHJnN-8" value="code_postal" style="text;html=1;align=center;verticalAlign=middle;resizable=0;points=[];autosize=1;strokeColor=none;fillColor=none;" parent="AJ8ExckoHPWglMIkNY3l-1" vertex="1">
          <mxGeometry x="55" y="85" width="90" height="30" as="geometry" />
        </mxCell>
        <mxCell id="LkYBel29slSREBmKHJnN-11" value="ville" style="text;html=1;align=center;verticalAlign=middle;resizable=0;points=[];autosize=1;strokeColor=none;fillColor=none;" parent="AJ8ExckoHPWglMIkNY3l-1" vertex="1">
          <mxGeometry x="80" y="115" width="40" height="30" as="geometry" />
        </mxCell>
        <mxCell id="LkYBel29slSREBmKHJnN-12" value="pays" style="text;html=1;align=center;verticalAlign=middle;resizable=0;points=[];autosize=1;strokeColor=none;fillColor=none;" parent="AJ8ExckoHPWglMIkNY3l-1" vertex="1">
          <mxGeometry x="75" y="145" width="50" height="30" as="geometry" />
        </mxCell>
        <mxCell id="kC049FplpGasjoPoZHOe-8" value="instructions livraison" style="text;html=1;align=center;verticalAlign=middle;resizable=0;points=[];autosize=1;strokeColor=none;fillColor=none;" vertex="1" parent="AJ8ExckoHPWglMIkNY3l-1">
          <mxGeometry x="35" y="170" width="130" height="30" as="geometry" />
        </mxCell>
        <mxCell id="kC049FplpGasjoPoZHOe-22" value="client_id" style="text;html=1;align=center;verticalAlign=middle;resizable=0;points=[];autosize=1;strokeColor=none;fillColor=none;" vertex="1" parent="AJ8ExckoHPWglMIkNY3l-1">
          <mxGeometry x="65" y="200" width="70" height="30" as="geometry" />
        </mxCell>
        <mxCell id="AJ8ExckoHPWglMIkNY3l-6" value="0,n" style="text;html=1;align=center;verticalAlign=middle;resizable=0;points=[];autosize=1;strokeColor=none;fillColor=none;" parent="1" vertex="1">
          <mxGeometry x="-455" y="170" width="40" height="30" as="geometry" />
        </mxCell>
        <mxCell id="AJ8ExckoHPWglMIkNY3l-7" value="0,n" style="text;html=1;align=center;verticalAlign=middle;resizable=0;points=[];autosize=1;strokeColor=none;fillColor=none;" parent="1" vertex="1">
          <mxGeometry x="645" y="320" width="40" height="30" as="geometry" />
        </mxCell>
        <mxCell id="LkYBel29slSREBmKHJnN-13" value="" style="endArrow=none;html=1;rounded=0;entryX=0;entryY=0.5;entryDx=0;entryDy=0;exitX=1;exitY=0.75;exitDx=0;exitDy=0;" parent="1" source="Frr1hfQ2MMtZjARR2G04-2" target="Frr1hfQ2MMtZjARR2G04-27" edge="1">
          <mxGeometry width="50" height="50" relative="1" as="geometry">
            <mxPoint x="-455" y="199.01" as="sourcePoint" />
            <mxPoint x="-374" y="160.98000000000002" as="targetPoint" />
          </mxGeometry>
        </mxCell>
        <mxCell id="LkYBel29slSREBmKHJnN-14" value="" style="endArrow=none;html=1;rounded=0;exitX=1;exitY=0.5;exitDx=0;exitDy=0;" parent="1" source="Frr1hfQ2MMtZjARR2G04-27" edge="1">
          <mxGeometry width="50" height="50" relative="1" as="geometry">
            <mxPoint x="-10.000000000000181" y="190.50999999999996" as="sourcePoint" />
            <mxPoint x="80" y="200" as="targetPoint" />
          </mxGeometry>
        </mxCell>
        <mxCell id="LkYBel29slSREBmKHJnN-15" value="" style="endArrow=none;html=1;rounded=0;" parent="1" edge="1">
          <mxGeometry width="50" height="50" relative="1" as="geometry">
            <mxPoint x="295.31" y="279" as="sourcePoint" />
            <mxPoint x="495.31" y="279" as="targetPoint" />
          </mxGeometry>
        </mxCell>
        <mxCell id="Frr1hfQ2MMtZjARR2G04-36" value="Appartenir" style="ellipse;whiteSpace=wrap;html=1;aspect=fixed;hachureGap=4;fontFamily=Architects Daughter;fontSource=https%3A%2F%2Ffonts.googleapis.com%2Fcss%3Ffamily%3DArchitects%2BDaughter;fontSize=20;" parent="1" vertex="1">
          <mxGeometry x="350" y="230" width="100" height="100" as="geometry" />
        </mxCell>
        <mxCell id="LkYBel29slSREBmKHJnN-19" value="&lt;font style=&quot;font-size: 18px;&quot;&gt;&lt;u&gt;Appartenir&lt;/u&gt;&lt;/font&gt;" style="text;html=1;align=center;verticalAlign=middle;resizable=0;points=[];autosize=1;strokeColor=none;fillColor=none;" parent="1" vertex="1">
          <mxGeometry x="-245" y="110" width="110" height="40" as="geometry" />
        </mxCell>
        <mxCell id="kC049FplpGasjoPoZHOe-1" value="livraison facture" style="swimlane;whiteSpace=wrap;html=1;" vertex="1" parent="1">
          <mxGeometry x="-220" y="520" width="200" height="200" as="geometry" />
        </mxCell>
        <mxCell id="kC049FplpGasjoPoZHOe-2" value="nom complet" style="text;html=1;align=center;verticalAlign=middle;resizable=0;points=[];autosize=1;strokeColor=none;fillColor=none;" vertex="1" parent="kC049FplpGasjoPoZHOe-1">
          <mxGeometry x="55" y="30" width="90" height="30" as="geometry" />
        </mxCell>
        <mxCell id="kC049FplpGasjoPoZHOe-3" value="adresse" style="text;html=1;align=center;verticalAlign=middle;resizable=0;points=[];autosize=1;strokeColor=none;fillColor=none;" vertex="1" parent="kC049FplpGasjoPoZHOe-1">
          <mxGeometry x="65" y="60" width="70" height="30" as="geometry" />
        </mxCell>
        <mxCell id="kC049FplpGasjoPoZHOe-4" value="code_postal" style="text;html=1;align=center;verticalAlign=middle;resizable=0;points=[];autosize=1;strokeColor=none;fillColor=none;" vertex="1" parent="kC049FplpGasjoPoZHOe-1">
          <mxGeometry x="55" y="90" width="90" height="30" as="geometry" />
        </mxCell>
        <mxCell id="kC049FplpGasjoPoZHOe-5" value="ville" style="text;html=1;align=center;verticalAlign=middle;resizable=0;points=[];autosize=1;strokeColor=none;fillColor=none;" vertex="1" parent="kC049FplpGasjoPoZHOe-1">
          <mxGeometry x="80" y="120" width="40" height="30" as="geometry" />
        </mxCell>
        <mxCell id="kC049FplpGasjoPoZHOe-6" value="pays" style="text;html=1;align=center;verticalAlign=middle;resizable=0;points=[];autosize=1;strokeColor=none;fillColor=none;" vertex="1" parent="kC049FplpGasjoPoZHOe-1">
          <mxGeometry x="75" y="150" width="50" height="30" as="geometry" />
        </mxCell>
        <mxCell id="kC049FplpGasjoPoZHOe-9" value="images" style="swimlane;whiteSpace=wrap;html=1;" vertex="1" parent="1">
          <mxGeometry x="-717.5" y="520" width="200" height="200" as="geometry" />
        </mxCell>
        <mxCell id="kC049FplpGasjoPoZHOe-10" value="produits_id" style="text;html=1;align=center;verticalAlign=middle;resizable=0;points=[];autosize=1;strokeColor=none;fillColor=none;" vertex="1" parent="kC049FplpGasjoPoZHOe-9">
          <mxGeometry x="57.5" y="35" width="80" height="30" as="geometry" />
        </mxCell>
        <mxCell id="kC049FplpGasjoPoZHOe-11" value="image_name" style="text;html=1;align=center;verticalAlign=middle;resizable=0;points=[];autosize=1;strokeColor=none;fillColor=none;" vertex="1" parent="kC049FplpGasjoPoZHOe-9">
          <mxGeometry x="52.5" y="70" width="90" height="30" as="geometry" />
        </mxCell>
        <mxCell id="kC049FplpGasjoPoZHOe-12" value="" style="endArrow=none;html=1;rounded=0;exitX=0.453;exitY=-0.01;exitDx=0;exitDy=0;exitPerimeter=0;" edge="1" parent="1" source="kC049FplpGasjoPoZHOe-15">
          <mxGeometry width="50" height="50" relative="1" as="geometry">
            <mxPoint x="-642.5" y="450" as="sourcePoint" />
            <mxPoint x="-650" y="330" as="targetPoint" />
          </mxGeometry>
        </mxCell>
        <mxCell id="kC049FplpGasjoPoZHOe-13" value="0,n" style="text;html=1;align=center;verticalAlign=middle;resizable=0;points=[];autosize=1;strokeColor=none;fillColor=none;" vertex="1" parent="1">
          <mxGeometry x="-637.5" y="335" width="40" height="30" as="geometry" />
        </mxCell>
        <mxCell id="kC049FplpGasjoPoZHOe-16" value="" style="endArrow=none;html=1;rounded=0;exitX=0.453;exitY=-0.01;exitDx=0;exitDy=0;exitPerimeter=0;" edge="1" parent="1" source="kC049FplpGasjoPoZHOe-9" target="kC049FplpGasjoPoZHOe-15">
          <mxGeometry width="50" height="50" relative="1" as="geometry">
            <mxPoint x="-627" y="518" as="sourcePoint" />
            <mxPoint x="-650" y="330" as="targetPoint" />
          </mxGeometry>
        </mxCell>
        <mxCell id="kC049FplpGasjoPoZHOe-15" value="posseder&lt;br&gt;/&lt;br&gt;appartenir" style="ellipse;whiteSpace=wrap;html=1;" vertex="1" parent="1">
          <mxGeometry x="-680" y="390" width="80" height="80" as="geometry" />
        </mxCell>
        <mxCell id="kC049FplpGasjoPoZHOe-20" value="0,1" style="text;html=1;align=center;verticalAlign=middle;resizable=0;points=[];autosize=1;strokeColor=none;fillColor=none;" vertex="1" parent="1">
          <mxGeometry x="100" y="490" width="40" height="30" as="geometry" />
        </mxCell>
        <mxCell id="kC049FplpGasjoPoZHOe-21" value="0,1" style="text;html=1;align=center;verticalAlign=middle;resizable=0;points=[];autosize=1;strokeColor=none;fillColor=none;" vertex="1" parent="1">
          <mxGeometry x="-620" y="490" width="40" height="30" as="geometry" />
        </mxCell>
        <mxCell id="kC049FplpGasjoPoZHOe-18" value="Contenir" style="ellipse;shape=doubleEllipse;whiteSpace=wrap;html=1;aspect=fixed;" vertex="1" parent="1">
          <mxGeometry x="605" y="500" width="80" height="80" as="geometry" />
        </mxCell>
        <mxCell id="kC049FplpGasjoPoZHOe-27" value="" style="endArrow=none;html=1;rounded=0;exitX=0.605;exitY=0;exitDx=0;exitDy=0;exitPerimeter=0;" edge="1" parent="1" source="AJ8ExckoHPWglMIkNY3l-1">
          <mxGeometry width="50" height="50" relative="1" as="geometry">
            <mxPoint x="100" y="510" as="sourcePoint" />
            <mxPoint x="100" y="370" as="targetPoint" />
          </mxGeometry>
        </mxCell>
        <mxCell id="kC049FplpGasjoPoZHOe-28" value="" style="endArrow=none;html=1;rounded=0;" edge="1" parent="1">
          <mxGeometry width="50" height="50" relative="1" as="geometry">
            <mxPoint x="-120" y="440" as="sourcePoint" />
            <mxPoint x="100" y="440" as="targetPoint" />
          </mxGeometry>
        </mxCell>
        <mxCell id="kC049FplpGasjoPoZHOe-29" value="" style="endArrow=none;html=1;rounded=0;exitX=0.5;exitY=0;exitDx=0;exitDy=0;" edge="1" parent="1" source="kC049FplpGasjoPoZHOe-1">
          <mxGeometry width="50" height="50" relative="1" as="geometry">
            <mxPoint x="-145" y="510" as="sourcePoint" />
            <mxPoint x="-120" y="440" as="targetPoint" />
          </mxGeometry>
        </mxCell>
        <mxCell id="kC049FplpGasjoPoZHOe-30" value="0,1" style="text;html=1;align=center;verticalAlign=middle;resizable=0;points=[];autosize=1;strokeColor=none;fillColor=none;" vertex="1" parent="1">
          <mxGeometry x="-120" y="490" width="40" height="30" as="geometry" />
        </mxCell>
        <mxCell id="kC049FplpGasjoPoZHOe-31" value="appartenir" style="ellipse;shape=doubleEllipse;whiteSpace=wrap;html=1;aspect=fixed;" vertex="1" parent="1">
          <mxGeometry x="60" y="405" width="80" height="80" as="geometry" />
        </mxCell>
        <mxCell id="kC049FplpGasjoPoZHOe-32" value="" style="endArrow=none;html=1;rounded=0;" edge="1" parent="1">
          <mxGeometry width="50" height="50" relative="1" as="geometry">
            <mxPoint x="180" y="680" as="sourcePoint" />
            <mxPoint x="640" y="680" as="targetPoint" />
          </mxGeometry>
        </mxCell>
        <mxCell id="kC049FplpGasjoPoZHOe-34" value="" style="endArrow=none;html=1;rounded=0;entryX=0.438;entryY=1;entryDx=0;entryDy=0;entryPerimeter=0;" edge="1" parent="1" target="kC049FplpGasjoPoZHOe-18">
          <mxGeometry width="50" height="50" relative="1" as="geometry">
            <mxPoint x="640" y="680" as="sourcePoint" />
            <mxPoint x="685" y="620" as="targetPoint" />
          </mxGeometry>
        </mxCell>
        <mxCell id="kC049FplpGasjoPoZHOe-35" value="" style="endArrow=none;html=1;rounded=0;entryX=0.5;entryY=1;entryDx=0;entryDy=0;exitX=0.5;exitY=0;exitDx=0;exitDy=0;" edge="1" parent="1" source="kC049FplpGasjoPoZHOe-18" target="Frr1hfQ2MMtZjARR2G04-8">
          <mxGeometry width="50" height="50" relative="1" as="geometry">
            <mxPoint x="635" y="500" as="sourcePoint" />
            <mxPoint x="685" y="450" as="targetPoint" />
          </mxGeometry>
        </mxCell>
        <mxCell id="kC049FplpGasjoPoZHOe-36" value="0,1" style="text;html=1;align=center;verticalAlign=middle;resizable=0;points=[];autosize=1;strokeColor=none;fillColor=none;" vertex="1" parent="1">
          <mxGeometry x="180" y="645" width="40" height="30" as="geometry" />
        </mxCell>
        <mxCell id="kC049FplpGasjoPoZHOe-37" value="" style="endArrow=none;html=1;rounded=0;" edge="1" parent="1">
          <mxGeometry width="50" height="50" relative="1" as="geometry">
            <mxPoint x="280" y="880" as="sourcePoint" />
            <mxPoint x="280" y="680" as="targetPoint" />
          </mxGeometry>
        </mxCell>
        <mxCell id="kC049FplpGasjoPoZHOe-38" value="" style="endArrow=none;html=1;rounded=0;" edge="1" parent="1">
          <mxGeometry width="50" height="50" relative="1" as="geometry">
            <mxPoint x="-120" y="880" as="sourcePoint" />
            <mxPoint x="280" y="880" as="targetPoint" />
          </mxGeometry>
        </mxCell>
        <mxCell id="kC049FplpGasjoPoZHOe-39" value="" style="endArrow=none;html=1;rounded=0;entryX=0.5;entryY=1;entryDx=0;entryDy=0;" edge="1" parent="1" target="kC049FplpGasjoPoZHOe-1">
          <mxGeometry width="50" height="50" relative="1" as="geometry">
            <mxPoint x="-120" y="880" as="sourcePoint" />
            <mxPoint x="-70" y="830" as="targetPoint" />
          </mxGeometry>
        </mxCell>
        <mxCell id="kC049FplpGasjoPoZHOe-40" value="0,1" style="text;html=1;align=center;verticalAlign=middle;resizable=0;points=[];autosize=1;strokeColor=none;fillColor=none;" vertex="1" parent="1">
          <mxGeometry x="-160" y="720" width="40" height="30" as="geometry" />
        </mxCell>
      </root>
    </mxGraphModel>
  </diagram>
</mxfile>
